<?xml version="1.0" encoding="UTF-8" standalone="no"?>
<!DOCTYPE svg PUBLIC "-//W3C//DTD SVG 1.1//EN"
 "http://www.w3.org/Graphics/SVG/1.1/DTD/svg11.dtd">
<!-- Generated by graphviz version 2.26.3 (20100126.1600)
 -->
<!-- Title: controllers_diagram Pages: 1 -->
<svg width="947pt" height="1049pt"
 viewBox="0.00 0.00 947.00 1049.00" xmlns="http://www.w3.org/2000/svg" xmlns:xlink="http://www.w3.org/1999/xlink">
<g id="graph1" class="graph" transform="scale(1 1) rotate(0) translate(4 1045)">
<title>controllers_diagram</title>
<polygon fill="white" stroke="white" points="-4,5 -4,-1045 944,-1045 944,5 -4,5"/>
<!-- _diagram_info -->
<g id="node1" class="node"><title>_diagram_info</title>
<text text-anchor="start" x="515" y="-202.4" font-family="Times Roman,serif" font-size="14.00">Controllers diagram</text>
<text text-anchor="start" x="515" y="-184.4" font-family="Times Roman,serif" font-size="14.00">Date: Nov 18 2010 &#45; 12:34</text>
<text text-anchor="start" x="515" y="-166.4" font-family="Times Roman,serif" font-size="14.00">Migration version: 20101003203143</text>
<text text-anchor="start" x="515" y="-148.4" font-family="Times Roman,serif" font-size="14.00">Generated by RailRoady 0.0.0</text>
</g>
<!-- HomeController -->
<g id="node2" class="node"><title>HomeController</title>
<polyline fill="none" stroke="black" points="519,-1.5 620,-1.5 "/>
<path fill="none" stroke="black" d="M620,-1.5C626,-1.5 632,-7.5 632,-13.5"/>
<polyline fill="none" stroke="black" points="632,-13.5 632,-91.5 "/>
<path fill="none" stroke="black" d="M632,-91.5C632,-97.5 626,-103.5 620,-103.5"/>
<polyline fill="none" stroke="black" points="620,-103.5 519,-103.5 "/>
<path fill="none" stroke="black" d="M519,-103.5C513,-103.5 507,-97.5 507,-91.5"/>
<polyline fill="none" stroke="black" points="507,-91.5 507,-13.5 "/>
<path fill="none" stroke="black" d="M507,-13.5C507,-7.5 513,-1.5 519,-1.5"/>
<text text-anchor="middle" x="569.5" y="-86.9" font-family="Times Roman,serif" font-size="14.00">HomeController</text>
<polyline fill="none" stroke="black" points="507,-77.5 632,-77.5 "/>
<text text-anchor="start" x="515" y="-60.9" font-family="Times Roman,serif" font-size="14.00">index</text>
<polyline fill="none" stroke="black" points="507,-51.5 632,-51.5 "/>
<polyline fill="none" stroke="black" points="507,-27.5 632,-27.5 "/>
<text text-anchor="start" x="515" y="-10.9" font-family="Times Roman,serif" font-size="14.00">_layout</text>
</g>
<!-- UserSessionsController -->
<g id="node3" class="node"><title>UserSessionsController</title>
<polyline fill="none" stroke="black" points="542,-530.5 765,-530.5 "/>
<path fill="none" stroke="black" d="M765,-530.5C771,-530.5 777,-536.5 777,-542.5"/>
<polyline fill="none" stroke="black" points="777,-542.5 777,-692.5 "/>
<path fill="none" stroke="black" d="M777,-692.5C777,-698.5 771,-704.5 765,-704.5"/>
<polyline fill="none" stroke="black" points="765,-704.5 542,-704.5 "/>
<path fill="none" stroke="black" d="M542,-704.5C536,-704.5 530,-698.5 530,-692.5"/>
<polyline fill="none" stroke="black" points="530,-692.5 530,-542.5 "/>
<path fill="none" stroke="black" d="M530,-542.5C530,-536.5 536,-530.5 542,-530.5"/>
<text text-anchor="middle" x="653.5" y="-687.9" font-family="Times Roman,serif" font-size="14.00">UserSessionsController</text>
<polyline fill="none" stroke="black" points="530,-678.5 777,-678.5 "/>
<text text-anchor="start" x="538" y="-661.9" font-family="Times Roman,serif" font-size="14.00">_one_time_conditions_valid_264?</text>
<text text-anchor="start" x="538" y="-643.9" font-family="Times Roman,serif" font-size="14.00">create</text>
<text text-anchor="start" x="538" y="-625.9" font-family="Times Roman,serif" font-size="14.00">destroy</text>
<text text-anchor="start" x="538" y="-607.9" font-family="Times Roman,serif" font-size="14.00">new</text>
<polyline fill="none" stroke="black" points="530,-598.5 777,-598.5 "/>
<polyline fill="none" stroke="black" points="530,-574.5 777,-574.5 "/>
<text text-anchor="start" x="538" y="-557.9" font-family="Times Roman,serif" font-size="14.00">_layout</text>
<text text-anchor="start" x="538" y="-539.9" font-family="Times Roman,serif" font-size="14.00">_run_process_action_callbacks</text>
</g>
<!-- PackagesController -->
<g id="node4" class="node"><title>PackagesController</title>
<polyline fill="none" stroke="black" points="519,-829.5 644,-829.5 "/>
<path fill="none" stroke="black" d="M644,-829.5C650,-829.5 656,-835.5 656,-841.5"/>
<polyline fill="none" stroke="black" points="656,-841.5 656,-1027.5 "/>
<path fill="none" stroke="black" d="M656,-1027.5C656,-1033.5 650,-1039.5 644,-1039.5"/>
<polyline fill="none" stroke="black" points="644,-1039.5 519,-1039.5 "/>
<path fill="none" stroke="black" d="M519,-1039.5C513,-1039.5 507,-1033.5 507,-1027.5"/>
<polyline fill="none" stroke="black" points="507,-1027.5 507,-841.5 "/>
<path fill="none" stroke="black" d="M507,-841.5C507,-835.5 513,-829.5 519,-829.5"/>
<text text-anchor="middle" x="581.5" y="-1022.9" font-family="Times Roman,serif" font-size="14.00">PackagesController</text>
<polyline fill="none" stroke="black" points="507,-1013.5 656,-1013.5 "/>
<text text-anchor="start" x="515" y="-996.9" font-family="Times Roman,serif" font-size="14.00">create</text>
<text text-anchor="start" x="515" y="-978.9" font-family="Times Roman,serif" font-size="14.00">destroy</text>
<text text-anchor="start" x="515" y="-960.9" font-family="Times Roman,serif" font-size="14.00">edit</text>
<text text-anchor="start" x="515" y="-942.9" font-family="Times Roman,serif" font-size="14.00">index</text>
<text text-anchor="start" x="515" y="-924.9" font-family="Times Roman,serif" font-size="14.00">new</text>
<text text-anchor="start" x="515" y="-906.9" font-family="Times Roman,serif" font-size="14.00">show</text>
<text text-anchor="start" x="515" y="-888.9" font-family="Times Roman,serif" font-size="14.00">update</text>
<polyline fill="none" stroke="black" points="507,-879.5 656,-879.5 "/>
<polyline fill="none" stroke="black" points="507,-855.5 656,-855.5 "/>
<text text-anchor="start" x="515" y="-838.9" font-family="Times Roman,serif" font-size="14.00">_layout</text>
</g>
<!-- SubscriptionsController -->
<g id="node5" class="node"><title>SubscriptionsController</title>
<polyline fill="none" stroke="black" points="36,-760.5 189,-760.5 "/>
<path fill="none" stroke="black" d="M189,-760.5C195,-760.5 201,-766.5 201,-772.5"/>
<polyline fill="none" stroke="black" points="201,-772.5 201,-958.5 "/>
<path fill="none" stroke="black" d="M201,-958.5C201,-964.5 195,-970.5 189,-970.5"/>
<polyline fill="none" stroke="black" points="189,-970.5 36,-970.5 "/>
<path fill="none" stroke="black" d="M36,-970.5C30,-970.5 24,-964.5 24,-958.5"/>
<polyline fill="none" stroke="black" points="24,-958.5 24,-772.5 "/>
<path fill="none" stroke="black" d="M24,-772.5C24,-766.5 30,-760.5 36,-760.5"/>
<text text-anchor="middle" x="112.5" y="-953.9" font-family="Times Roman,serif" font-size="14.00">SubscriptionsController</text>
<polyline fill="none" stroke="black" points="24,-944.5 201,-944.5 "/>
<text text-anchor="start" x="32" y="-927.9" font-family="Times Roman,serif" font-size="14.00">create</text>
<text text-anchor="start" x="32" y="-909.9" font-family="Times Roman,serif" font-size="14.00">destroy</text>
<text text-anchor="start" x="32" y="-891.9" font-family="Times Roman,serif" font-size="14.00">edit</text>
<text text-anchor="start" x="32" y="-873.9" font-family="Times Roman,serif" font-size="14.00">index</text>
<text text-anchor="start" x="32" y="-855.9" font-family="Times Roman,serif" font-size="14.00">new</text>
<text text-anchor="start" x="32" y="-837.9" font-family="Times Roman,serif" font-size="14.00">show</text>
<text text-anchor="start" x="32" y="-819.9" font-family="Times Roman,serif" font-size="14.00">update</text>
<polyline fill="none" stroke="black" points="24,-810.5 201,-810.5 "/>
<polyline fill="none" stroke="black" points="24,-786.5 201,-786.5 "/>
<text text-anchor="start" x="32" y="-769.9" font-family="Times Roman,serif" font-size="14.00">_layout</text>
</g>
<!-- Admin::PackagesController -->
<g id="node6" class="node"><title>Admin::PackagesController</title>
<polyline fill="none" stroke="black" points="13,-47.5 190,-47.5 "/>
<path fill="none" stroke="black" d="M190,-47.5C196,-47.5 202,-53.5 202,-59.5"/>
<polyline fill="none" stroke="black" points="202,-59.5 202,-245.5 "/>
<path fill="none" stroke="black" d="M202,-245.5C202,-251.5 196,-257.5 190,-257.5"/>
<polyline fill="none" stroke="black" points="190,-257.5 13,-257.5 "/>
<path fill="none" stroke="black" d="M13,-257.5C7,-257.5 1,-251.5 1,-245.5"/>
<polyline fill="none" stroke="black" points="1,-245.5 1,-59.5 "/>
<path fill="none" stroke="black" d="M1,-59.5C1,-53.5 7,-47.5 13,-47.5"/>
<text text-anchor="middle" x="101.5" y="-240.9" font-family="Times Roman,serif" font-size="14.00">Admin::PackagesController</text>
<polyline fill="none" stroke="black" points="1,-231.5 202,-231.5 "/>
<text text-anchor="start" x="9" y="-214.9" font-family="Times Roman,serif" font-size="14.00">create</text>
<text text-anchor="start" x="9" y="-196.9" font-family="Times Roman,serif" font-size="14.00">destroy</text>
<text text-anchor="start" x="9" y="-178.9" font-family="Times Roman,serif" font-size="14.00">edit</text>
<text text-anchor="start" x="9" y="-160.9" font-family="Times Roman,serif" font-size="14.00">index</text>
<text text-anchor="start" x="9" y="-142.9" font-family="Times Roman,serif" font-size="14.00">new</text>
<text text-anchor="start" x="9" y="-124.9" font-family="Times Roman,serif" font-size="14.00">show</text>
<text text-anchor="start" x="9" y="-106.9" font-family="Times Roman,serif" font-size="14.00">update</text>
<polyline fill="none" stroke="black" points="1,-97.5 202,-97.5 "/>
<polyline fill="none" stroke="black" points="1,-73.5 202,-73.5 "/>
<text text-anchor="start" x="9" y="-56.9" font-family="Times Roman,serif" font-size="14.00">_layout</text>
</g>
<!-- Admin::SubscriptionsController -->
<g id="node7" class="node"><title>Admin::SubscriptionsController</title>
<polyline fill="none" stroke="black" points="266,-576.5 472,-576.5 "/>
<path fill="none" stroke="black" d="M472,-576.5C478,-576.5 484,-582.5 484,-588.5"/>
<polyline fill="none" stroke="black" points="484,-588.5 484,-774.5 "/>
<path fill="none" stroke="black" d="M484,-774.5C484,-780.5 478,-786.5 472,-786.5"/>
<polyline fill="none" stroke="black" points="472,-786.5 266,-786.5 "/>
<path fill="none" stroke="black" d="M266,-786.5C260,-786.5 254,-780.5 254,-774.5"/>
<polyline fill="none" stroke="black" points="254,-774.5 254,-588.5 "/>
<path fill="none" stroke="black" d="M254,-588.5C254,-582.5 260,-576.5 266,-576.5"/>
<text text-anchor="middle" x="369" y="-769.9" font-family="Times Roman,serif" font-size="14.00">Admin::SubscriptionsController</text>
<polyline fill="none" stroke="black" points="254,-760.5 484,-760.5 "/>
<text text-anchor="start" x="262" y="-743.9" font-family="Times Roman,serif" font-size="14.00">create</text>
<text text-anchor="start" x="262" y="-725.9" font-family="Times Roman,serif" font-size="14.00">destroy</text>
<text text-anchor="start" x="262" y="-707.9" font-family="Times Roman,serif" font-size="14.00">edit</text>
<text text-anchor="start" x="262" y="-689.9" font-family="Times Roman,serif" font-size="14.00">index</text>
<text text-anchor="start" x="262" y="-671.9" font-family="Times Roman,serif" font-size="14.00">new</text>
<text text-anchor="start" x="262" y="-653.9" font-family="Times Roman,serif" font-size="14.00">show</text>
<text text-anchor="start" x="262" y="-635.9" font-family="Times Roman,serif" font-size="14.00">update</text>
<polyline fill="none" stroke="black" points="254,-626.5 484,-626.5 "/>
<polyline fill="none" stroke="black" points="254,-602.5 484,-602.5 "/>
<text text-anchor="start" x="262" y="-585.9" font-family="Times Roman,serif" font-size="14.00">_layout</text>
</g>
<!-- Admin::MessagesController -->
<g id="node8" class="node"><title>Admin::MessagesController</title>
<polyline fill="none" stroke="black" points="266,-47.5 445,-47.5 "/>
<path fill="none" stroke="black" d="M445,-47.5C451,-47.5 457,-53.5 457,-59.5"/>
<polyline fill="none" stroke="black" points="457,-59.5 457,-245.5 "/>
<path fill="none" stroke="black" d="M457,-245.5C457,-251.5 451,-257.5 445,-257.5"/>
<polyline fill="none" stroke="black" points="445,-257.5 266,-257.5 "/>
<path fill="none" stroke="black" d="M266,-257.5C260,-257.5 254,-251.5 254,-245.5"/>
<polyline fill="none" stroke="black" points="254,-245.5 254,-59.5 "/>
<path fill="none" stroke="black" d="M254,-59.5C254,-53.5 260,-47.5 266,-47.5"/>
<text text-anchor="middle" x="355.5" y="-240.9" font-family="Times Roman,serif" font-size="14.00">Admin::MessagesController</text>
<polyline fill="none" stroke="black" points="254,-231.5 457,-231.5 "/>
<text text-anchor="start" x="262" y="-214.9" font-family="Times Roman,serif" font-size="14.00">create</text>
<text text-anchor="start" x="262" y="-196.9" font-family="Times Roman,serif" font-size="14.00">destroy</text>
<text text-anchor="start" x="262" y="-178.9" font-family="Times Roman,serif" font-size="14.00">edit</text>
<text text-anchor="start" x="262" y="-160.9" font-family="Times Roman,serif" font-size="14.00">index</text>
<text text-anchor="start" x="262" y="-142.9" font-family="Times Roman,serif" font-size="14.00">new</text>
<text text-anchor="start" x="262" y="-124.9" font-family="Times Roman,serif" font-size="14.00">show</text>
<text text-anchor="start" x="262" y="-106.9" font-family="Times Roman,serif" font-size="14.00">update</text>
<polyline fill="none" stroke="black" points="254,-97.5 457,-97.5 "/>
<polyline fill="none" stroke="black" points="254,-73.5 457,-73.5 "/>
<text text-anchor="start" x="262" y="-56.9" font-family="Times Roman,serif" font-size="14.00">_layout</text>
</g>
<!-- Admin::UsersController -->
<g id="node9" class="node"><title>Admin::UsersController</title>
<polyline fill="none" stroke="black" points="13,-415.5 165,-415.5 "/>
<path fill="none" stroke="black" d="M165,-415.5C171,-415.5 177,-421.5 177,-427.5"/>
<polyline fill="none" stroke="black" points="177,-427.5 177,-613.5 "/>
<path fill="none" stroke="black" d="M177,-613.5C177,-619.5 171,-625.5 165,-625.5"/>
<polyline fill="none" stroke="black" points="165,-625.5 13,-625.5 "/>
<path fill="none" stroke="black" d="M13,-625.5C7,-625.5 1,-619.5 1,-613.5"/>
<polyline fill="none" stroke="black" points="1,-613.5 1,-427.5 "/>
<path fill="none" stroke="black" d="M1,-427.5C1,-421.5 7,-415.5 13,-415.5"/>
<text text-anchor="middle" x="89" y="-608.9" font-family="Times Roman,serif" font-size="14.00">Admin::UsersController</text>
<polyline fill="none" stroke="black" points="1,-599.5 177,-599.5 "/>
<text text-anchor="start" x="9" y="-582.9" font-family="Times Roman,serif" font-size="14.00">create</text>
<text text-anchor="start" x="9" y="-564.9" font-family="Times Roman,serif" font-size="14.00">destroy</text>
<text text-anchor="start" x="9" y="-546.9" font-family="Times Roman,serif" font-size="14.00">edit</text>
<text text-anchor="start" x="9" y="-528.9" font-family="Times Roman,serif" font-size="14.00">index</text>
<text text-anchor="start" x="9" y="-510.9" font-family="Times Roman,serif" font-size="14.00">new</text>
<text text-anchor="start" x="9" y="-492.9" font-family="Times Roman,serif" font-size="14.00">show</text>
<text text-anchor="start" x="9" y="-474.9" font-family="Times Roman,serif" font-size="14.00">update</text>
<polyline fill="none" stroke="black" points="1,-465.5 177,-465.5 "/>
<polyline fill="none" stroke="black" points="1,-441.5 177,-441.5 "/>
<text text-anchor="start" x="9" y="-424.9" font-family="Times Roman,serif" font-size="14.00">_layout</text>
</g>
<!-- MessagesController -->
<g id="node10" class="node"><title>MessagesController</title>
<polyline fill="none" stroke="black" points="703,-737.5 926,-737.5 "/>
<path fill="none" stroke="black" d="M926,-737.5C932,-737.5 938,-743.5 938,-749.5"/>
<polyline fill="none" stroke="black" points="938,-749.5 938,-899.5 "/>
<path fill="none" stroke="black" d="M938,-899.5C938,-905.5 932,-911.5 926,-911.5"/>
<polyline fill="none" stroke="black" points="926,-911.5 703,-911.5 "/>
<path fill="none" stroke="black" d="M703,-911.5C697,-911.5 691,-905.5 691,-899.5"/>
<polyline fill="none" stroke="black" points="691,-899.5 691,-749.5 "/>
<path fill="none" stroke="black" d="M691,-749.5C691,-743.5 697,-737.5 703,-737.5"/>
<text text-anchor="middle" x="814.5" y="-894.9" font-family="Times Roman,serif" font-size="14.00">MessagesController</text>
<polyline fill="none" stroke="black" points="691,-885.5 938,-885.5 "/>
<text text-anchor="start" x="699" y="-868.9" font-family="Times Roman,serif" font-size="14.00">_one_time_conditions_valid_268?</text>
<text text-anchor="start" x="699" y="-850.9" font-family="Times Roman,serif" font-size="14.00">create</text>
<text text-anchor="start" x="699" y="-832.9" font-family="Times Roman,serif" font-size="14.00">index</text>
<text text-anchor="start" x="699" y="-814.9" font-family="Times Roman,serif" font-size="14.00">new</text>
<polyline fill="none" stroke="black" points="691,-805.5 938,-805.5 "/>
<polyline fill="none" stroke="black" points="691,-781.5 938,-781.5 "/>
<text text-anchor="start" x="699" y="-764.9" font-family="Times Roman,serif" font-size="14.00">_layout</text>
<text text-anchor="start" x="699" y="-746.9" font-family="Times Roman,serif" font-size="14.00">_run_process_action_callbacks</text>
</g>
<!-- RecipientsController -->
<g id="node11" class="node"><title>RecipientsController</title>
<polyline fill="none" stroke="black" points="312,-829.5 443,-829.5 "/>
<path fill="none" stroke="black" d="M443,-829.5C449,-829.5 455,-835.5 455,-841.5"/>
<polyline fill="none" stroke="black" points="455,-841.5 455,-1027.5 "/>
<path fill="none" stroke="black" d="M455,-1027.5C455,-1033.5 449,-1039.5 443,-1039.5"/>
<polyline fill="none" stroke="black" points="443,-1039.5 312,-1039.5 "/>
<path fill="none" stroke="black" d="M312,-1039.5C306,-1039.5 300,-1033.5 300,-1027.5"/>
<polyline fill="none" stroke="black" points="300,-1027.5 300,-841.5 "/>
<path fill="none" stroke="black" d="M300,-841.5C300,-835.5 306,-829.5 312,-829.5"/>
<text text-anchor="middle" x="377.5" y="-1022.9" font-family="Times Roman,serif" font-size="14.00">RecipientsController</text>
<polyline fill="none" stroke="black" points="300,-1013.5 455,-1013.5 "/>
<text text-anchor="start" x="308" y="-996.9" font-family="Times Roman,serif" font-size="14.00">create</text>
<text text-anchor="start" x="308" y="-978.9" font-family="Times Roman,serif" font-size="14.00">destroy</text>
<text text-anchor="start" x="308" y="-960.9" font-family="Times Roman,serif" font-size="14.00">edit</text>
<text text-anchor="start" x="308" y="-942.9" font-family="Times Roman,serif" font-size="14.00">index</text>
<text text-anchor="start" x="308" y="-924.9" font-family="Times Roman,serif" font-size="14.00">new</text>
<text text-anchor="start" x="308" y="-906.9" font-family="Times Roman,serif" font-size="14.00">show</text>
<text text-anchor="start" x="308" y="-888.9" font-family="Times Roman,serif" font-size="14.00">update</text>
<polyline fill="none" stroke="black" points="300,-879.5 455,-879.5 "/>
<polyline fill="none" stroke="black" points="300,-855.5 455,-855.5 "/>
<text text-anchor="start" x="308" y="-838.9" font-family="Times Roman,serif" font-size="14.00">_layout</text>
</g>
<!-- UsersController -->
<g id="node12" class="node"><title>UsersController</title>
<polyline fill="none" stroke="black" points="243,-300.5 466,-300.5 "/>
<path fill="none" stroke="black" d="M466,-300.5C472,-300.5 478,-306.5 478,-312.5"/>
<polyline fill="none" stroke="black" points="478,-312.5 478,-516.5 "/>
<path fill="none" stroke="black" d="M478,-516.5C478,-522.5 472,-528.5 466,-528.5"/>
<polyline fill="none" stroke="black" points="466,-528.5 243,-528.5 "/>
<path fill="none" stroke="black" d="M243,-528.5C237,-528.5 231,-522.5 231,-516.5"/>
<polyline fill="none" stroke="black" points="231,-516.5 231,-312.5 "/>
<path fill="none" stroke="black" d="M231,-312.5C231,-306.5 237,-300.5 243,-300.5"/>
<text text-anchor="middle" x="354.5" y="-511.9" font-family="Times Roman,serif" font-size="14.00">UsersController</text>
<polyline fill="none" stroke="black" points="231,-502.5 478,-502.5 "/>
<text text-anchor="start" x="239" y="-485.9" font-family="Times Roman,serif" font-size="14.00">_one_time_conditions_valid_272?</text>
<text text-anchor="start" x="239" y="-467.9" font-family="Times Roman,serif" font-size="14.00">_one_time_conditions_valid_276?</text>
<text text-anchor="start" x="239" y="-449.9" font-family="Times Roman,serif" font-size="14.00">create</text>
<text text-anchor="start" x="239" y="-431.9" font-family="Times Roman,serif" font-size="14.00">edit</text>
<text text-anchor="start" x="239" y="-413.9" font-family="Times Roman,serif" font-size="14.00">new</text>
<text text-anchor="start" x="239" y="-395.9" font-family="Times Roman,serif" font-size="14.00">show</text>
<text text-anchor="start" x="239" y="-377.9" font-family="Times Roman,serif" font-size="14.00">update</text>
<polyline fill="none" stroke="black" points="231,-368.5 478,-368.5 "/>
<polyline fill="none" stroke="black" points="231,-344.5 478,-344.5 "/>
<text text-anchor="start" x="239" y="-327.9" font-family="Times Roman,serif" font-size="14.00">_layout</text>
<text text-anchor="start" x="239" y="-309.9" font-family="Times Roman,serif" font-size="14.00">_run_process_action_callbacks</text>
</g>
<!-- ApplicationController -->
<g id="node13" class="node"><title>ApplicationController</title>
<polyline fill="none" stroke="black" points="542,-254.5 765,-254.5 "/>
<path fill="none" stroke="black" d="M765,-254.5C771,-254.5 777,-260.5 777,-266.5"/>
<polyline fill="none" stroke="black" points="777,-266.5 777,-470.5 "/>
<path fill="none" stroke="black" d="M777,-470.5C777,-476.5 771,-482.5 765,-482.5"/>
<polyline fill="none" stroke="black" points="765,-482.5 542,-482.5 "/>
<path fill="none" stroke="black" d="M542,-482.5C536,-482.5 530,-476.5 530,-470.5"/>
<polyline fill="none" stroke="black" points="530,-470.5 530,-266.5 "/>
<path fill="none" stroke="black" d="M530,-266.5C530,-260.5 536,-254.5 542,-254.5"/>
<text text-anchor="middle" x="653.5" y="-465.9" font-family="Times Roman,serif" font-size="14.00">ApplicationController</text>
<polyline fill="none" stroke="black" points="530,-456.5 777,-456.5 "/>
<text text-anchor="start" x="538" y="-439.9" font-family="Times Roman,serif" font-size="14.00">_one_time_conditions_valid_262?</text>
<polyline fill="none" stroke="black" points="530,-430.5 777,-430.5 "/>
<polyline fill="none" stroke="black" points="530,-406.5 777,-406.5 "/>
<text text-anchor="start" x="538" y="-389.9" font-family="Times Roman,serif" font-size="14.00">_layout</text>
<text text-anchor="start" x="538" y="-371.9" font-family="Times Roman,serif" font-size="14.00">_run_process_action_callbacks</text>
<text text-anchor="start" x="538" y="-353.9" font-family="Times Roman,serif" font-size="14.00">current_user</text>
<text text-anchor="start" x="538" y="-335.9" font-family="Times Roman,serif" font-size="14.00">current_user_session</text>
<text text-anchor="start" x="538" y="-317.9" font-family="Times Roman,serif" font-size="14.00">redirect_back_or_default</text>
<text text-anchor="start" x="538" y="-299.9" font-family="Times Roman,serif" font-size="14.00">require_no_user</text>
<text text-anchor="start" x="538" y="-281.9" font-family="Times Roman,serif" font-size="14.00">require_user</text>
<text text-anchor="start" x="538" y="-263.9" font-family="Times Roman,serif" font-size="14.00">store_location</text>
</g>
</g>
</svg>
