<?xml version="1.0" encoding="UTF-8" standalone="no"?>
<!DOCTYPE svg PUBLIC "-//W3C//DTD SVG 1.1//EN"
 "http://www.w3.org/Graphics/SVG/1.1/DTD/svg11.dtd">
<!-- Generated by graphviz version 2.26.3 (20100126.1600)
 -->
<!-- Title: models_diagram Pages: 1 -->
<svg width="1120pt" height="384pt"
 viewBox="0.00 0.00 1120.00 384.00" xmlns="http://www.w3.org/2000/svg" xmlns:xlink="http://www.w3.org/1999/xlink">
<g id="graph1" class="graph" transform="scale(1 1) rotate(0) translate(4 380)">
<title>models_diagram</title>
<polygon fill="white" stroke="white" points="-4,5 -4,-380 1117,-380 1117,5 -4,5"/>
<!-- _diagram_info -->
<g id="node1" class="node"><title>_diagram_info</title>
<text text-anchor="start" x="8" y="-359.4" font-family="Times Roman,serif" font-size="14.00">Models diagram</text>
<text text-anchor="start" x="8" y="-341.4" font-family="Times Roman,serif" font-size="14.00">Date: Nov 18 2010 &#45; 12:33</text>
<text text-anchor="start" x="8" y="-323.4" font-family="Times Roman,serif" font-size="14.00">Migration version: 20101003203143</text>
<text text-anchor="start" x="8" y="-305.4" font-family="Times Roman,serif" font-size="14.00">Generated by RailRoady 0.0.0</text>
</g>
<!-- Recipient -->
<g id="node2" class="node"><title>Recipient</title>
<ellipse fill="none" stroke="black" cx="315" cy="-19" rx="56.0679" ry="18.3848"/>
<text text-anchor="middle" x="315" y="-15.4" font-family="Times Roman,serif" font-size="14.00">Recipient</text>
</g>
<!-- UserObserver -->
<g id="node3" class="node"><title>UserObserver</title>
<polygon fill="none" stroke="black" points="598,-259 488,-259 488,-223 598,-223 598,-259"/>
<text text-anchor="middle" x="543" y="-237.4" font-family="Times Roman,serif" font-size="14.00">UserObserver</text>
</g>
<!-- User -->
<g id="node4" class="node"><title>User</title>
<ellipse fill="none" stroke="black" cx="324" cy="-336" rx="33.9411" ry="18.3848"/>
<text text-anchor="middle" x="324" y="-332.4" font-family="Times Roman,serif" font-size="14.00">User</text>
</g>
<!-- User&#45;&gt;Recipient -->
<g id="edge6" class="edge"><title>User&#45;&gt;Recipient</title>
<path fill="none" stroke="black" d="M312.047,-308.451C294.746,-266.854 263.636,-185.099 253,-112 250.568,-95.2871 246.074,-89.4033 253,-74 258.737,-61.2419 269.058,-50.2419 279.654,-41.5045"/>
<polygon fill="black" stroke="black" points="312.142,-308.678 311.878,-319.641 314.084,-313.286 316.025,-317.893 316.025,-317.893 316.025,-317.893 314.084,-313.286 320.172,-316.146 312.142,-308.678 312.142,-308.678"/>
<polygon fill="black" stroke="black" points="279.819,-41.3774 290.487,-38.8366 283.779,-38.3249 287.739,-35.2725 287.739,-35.2725 287.739,-35.2725 283.779,-38.3249 284.992,-31.7084 279.819,-41.3774 279.819,-41.3774"/>
</g>
<!-- Message -->
<g id="node5" class="node"><title>Message</title>
<ellipse fill="none" stroke="black" cx="315" cy="-93" rx="53.033" ry="18.3848"/>
<text text-anchor="middle" x="315" y="-89.4" font-family="Times Roman,serif" font-size="14.00">Message</text>
</g>
<!-- User&#45;&gt;Message -->
<g id="edge4" class="edge"><title>User&#45;&gt;Message</title>
<path fill="none" stroke="black" d="M314.924,-309.941C310.35,-295.436 305.297,-276.939 303,-260 296.444,-211.656 303.642,-154.921 309.378,-121.577"/>
<ellipse fill="none" stroke="black" cx="316.16" cy="-313.748" rx="4.00001" ry="4.00001"/>
<polygon fill="black" stroke="black" points="309.4,-121.455 315.598,-112.41 310.284,-116.534 311.169,-111.613 311.169,-111.613 311.169,-111.613 310.284,-116.534 306.74,-110.817 309.4,-121.455 309.4,-121.455"/>
</g>
<!-- Package -->
<g id="node8" class="node"><title>Package</title>
<ellipse fill="none" stroke="black" cx="363" cy="-241" rx="51.1176" ry="18.3848"/>
<text text-anchor="middle" x="363" y="-237.4" font-family="Times Roman,serif" font-size="14.00">Package</text>
</g>
<!-- User&#45;&gt;Package -->
<g id="edge10" class="edge"><title>User&#45;&gt;Package</title>
<path fill="none" stroke="black" d="M335.494,-308.001C340.553,-295.679 346.482,-281.237 351.537,-268.923"/>
<polygon fill="black" stroke="black" points="335.317,-308.432 327.357,-315.974 333.418,-313.058 331.52,-317.683 331.52,-317.683 331.52,-317.683 333.418,-313.058 335.682,-319.392 335.317,-308.432 335.317,-308.432"/>
<polygon fill="black" stroke="black" points="351.573,-268.836 359.533,-261.294 353.472,-264.21 355.37,-259.585 355.37,-259.585 355.37,-259.585 353.472,-264.21 351.208,-257.876 351.573,-268.836 351.573,-268.836"/>
</g>
<!-- Subscription -->
<g id="node9" class="node"><title>Subscription</title>
<ellipse fill="none" stroke="black" cx="389" cy="-167" rx="70.9184" ry="18.3848"/>
<text text-anchor="middle" x="389" y="-163.4" font-family="Times Roman,serif" font-size="14.00">Subscription</text>
</g>
<!-- User&#45;&gt;Subscription -->
<g id="edge8" class="edge"><title>User&#45;&gt;Subscription</title>
<path fill="none" stroke="black" d="M360.755,-323.238C388.323,-311.498 424.099,-291.132 441,-260 449.058,-245.157 447.244,-237.692 441,-222 436.491,-210.668 428.417,-200.323 419.955,-191.74"/>
<ellipse fill="none" stroke="black" cx="356.921" cy="-324.807" rx="4.00001" ry="4.00001"/>
<polygon fill="black" stroke="black" points="419.755,-191.55 415.595,-181.404 416.127,-188.11 412.498,-184.67 412.498,-184.67 412.498,-184.67 416.127,-188.11 409.402,-187.935 419.755,-191.55 419.755,-191.55"/>
</g>
<!-- Message&#45;&gt;Recipient -->
<g id="edge12" class="edge"><title>Message&#45;&gt;Recipient</title>
<path fill="none" stroke="black" d="M315,-66.309C315,-60.3769 315,-54.0606 315,-48.0396"/>
<ellipse fill="none" stroke="black" cx="315" cy="-70.3267" rx="4" ry="4"/>
<polygon fill="black" stroke="black" points="315,-47.6674 319.5,-37.6673 315,-42.6674 315,-37.6674 315,-37.6674 315,-37.6674 315,-42.6674 310.5,-37.6674 315,-47.6674 315,-47.6674"/>
</g>
<!-- MessageObserver -->
<g id="node6" class="node"><title>MessageObserver</title>
<polygon fill="none" stroke="black" points="754,-259 616,-259 616,-223 754,-223 754,-259"/>
<text text-anchor="middle" x="685" y="-237.4" font-family="Times Roman,serif" font-size="14.00">MessageObserver</text>
</g>
<!-- UserSession -->
<g id="node7" class="node"><title>UserSession</title>
<polygon fill="none" stroke="black" points="1032,-259 932,-259 932,-223 1032,-223 1032,-259"/>
<text text-anchor="middle" x="982" y="-237.4" font-family="Times Roman,serif" font-size="14.00">UserSession</text>
</g>
<!-- Package&#45;&gt;Package -->
<g id="edge20" class="edge"><title>Package&#45;&gt;Package</title>
<path fill="none" stroke="black" d="M408.289,-254.839C421.637,-254.394 432,-249.781 432,-241 432,-232.219 421.637,-227.606 408.289,-227.161"/>
<polygon fill="black" stroke="black" points="408.139,-254.833 398.33,-249.931 403.143,-254.63 398.148,-254.427 398.148,-254.427 398.148,-254.427 403.143,-254.63 397.965,-258.923 408.139,-254.833 408.139,-254.833"/>
<polygon fill="black" stroke="black" points="408.139,-227.167 397.965,-223.077 403.143,-227.37 398.148,-227.573 398.148,-227.573 398.148,-227.573 403.143,-227.37 398.33,-232.069 408.139,-227.167 408.139,-227.167"/>
</g>
<!-- Package&#45;&gt;Subscription -->
<g id="edge18" class="edge"><title>Package&#45;&gt;Subscription</title>
<path fill="none" stroke="black" d="M372.277,-214.596C374.483,-208.318 376.845,-201.595 379.078,-195.239"/>
<ellipse fill="none" stroke="black" cx="370.887" cy="-218.553" rx="4.00001" ry="4.00001"/>
<polygon fill="black" stroke="black" points="379.126,-195.102 386.687,-187.159 380.784,-190.385 382.441,-185.667 382.441,-185.667 382.441,-185.667 380.784,-190.385 378.196,-184.176 379.126,-195.102 379.126,-195.102"/>
</g>
<!-- Subscription&#45;&gt;Recipient -->
<g id="edge22" class="edge"><title>Subscription&#45;&gt;Recipient</title>
<path fill="none" stroke="black" d="M390.413,-140.249C390.322,-120.807 387.812,-94.4307 377,-74 370.403,-61.5347 359.769,-50.552 349.156,-41.7441"/>
<ellipse fill="none" stroke="black" cx="390.363" cy="-144.383" rx="4" ry="4"/>
<polygon fill="black" stroke="black" points="348.985,-41.6099 343.887,-31.9012 345.049,-38.5269 341.112,-35.4439 341.112,-35.4439 341.112,-35.4439 345.049,-38.5269 338.338,-38.9867 348.985,-41.6099 348.985,-41.6099"/>
</g>
<!-- Subscription&#45;&gt;Message -->
<g id="edge24" class="edge"><title>Subscription&#45;&gt;Message</title>
<path fill="none" stroke="black" d="M363.87,-141.87C356.131,-134.131 347.617,-125.617 339.894,-117.894"/>
<polygon fill="black" stroke="black" points="364.016,-142.016 367.905,-152.269 367.551,-145.551 371.087,-149.087 371.087,-149.087 371.087,-149.087 367.551,-145.551 374.269,-145.905 364.016,-142.016 364.016,-142.016"/>
<polygon fill="black" stroke="black" points="339.564,-117.564 335.675,-107.311 336.029,-114.029 332.493,-110.493 332.493,-110.493 332.493,-110.493 336.029,-114.029 329.311,-113.675 339.564,-117.564 339.564,-117.564"/>
</g>
<!-- RecipientObserver -->
<g id="node10" class="node"><title>RecipientObserver</title>
<polygon fill="none" stroke="black" points="914,-259 772,-259 772,-223 914,-223 914,-259"/>
<text text-anchor="middle" x="843" y="-237.4" font-family="Times Roman,serif" font-size="14.00">RecipientObserver</text>
</g>
<!-- ActiveRecord::Observer -->
<g id="node11" class="node"><title>ActiveRecord::Observer</title>
<ellipse fill="none" stroke="black" cx="685" cy="-336" rx="125.865" ry="18.3848"/>
<text text-anchor="middle" x="685" y="-332.4" font-family="Times Roman,serif" font-size="14.00">ActiveRecord::Observer</text>
</g>
<!-- ActiveRecord::Observer&#45;&gt;UserObserver -->
<g id="edge2" class="edge"><title>ActiveRecord::Observer&#45;&gt;UserObserver</title>
<path fill="none" stroke="black" d="M657.957,-317.908C632.689,-301.004 595.177,-275.907 569.943,-259.025"/>
</g>
<!-- ActiveRecord::Observer&#45;&gt;MessageObserver -->
<g id="edge14" class="edge"><title>ActiveRecord::Observer&#45;&gt;MessageObserver</title>
<path fill="none" stroke="black" d="M685,-317.231C685,-300.36 685,-275.743 685,-259.085"/>
</g>
<!-- ActiveRecord::Observer&#45;&gt;RecipientObserver -->
<g id="edge26" class="edge"><title>ActiveRecord::Observer&#45;&gt;RecipientObserver</title>
<path fill="none" stroke="black" d="M715.09,-317.908C743.205,-301.004 784.944,-275.907 813.022,-259.025"/>
</g>
<!-- Authlogic::Session::Base -->
<g id="node19" class="node"><title>Authlogic::Session::Base</title>
<ellipse fill="none" stroke="black" cx="982" cy="-336" rx="130.108" ry="18.3848"/>
<text text-anchor="middle" x="982" y="-332.4" font-family="Times Roman,serif" font-size="14.00">Authlogic::Session::Base</text>
</g>
<!-- Authlogic::Session::Base&#45;&gt;UserSession -->
<g id="edge16" class="edge"><title>Authlogic::Session::Base&#45;&gt;UserSession</title>
<path fill="none" stroke="black" d="M982,-317.231C982,-300.36 982,-275.743 982,-259.085"/>
</g>
</g>
</svg>
