<?xml version="1.0" encoding="UTF-8" standalone="no"?>
<!DOCTYPE svg PUBLIC "-//W3C//DTD SVG 1.1//EN"
 "http://www.w3.org/Graphics/SVG/1.1/DTD/svg11.dtd">
<!-- Generated by graphviz version 2.26.3 (20100126.1600)
 -->
<!-- Title: models_diagram Pages: 1 -->
<svg width="1234pt" height="998pt"
 viewBox="0.00 0.00 1234.00 998.00" xmlns="http://www.w3.org/2000/svg" xmlns:xlink="http://www.w3.org/1999/xlink">
<g id="graph1" class="graph" transform="scale(1 1) rotate(0) translate(4 994)">
<title>models_diagram</title>
<polygon fill="white" stroke="white" points="-4,5 -4,-994 1231,-994 1231,5 -4,5"/>
<!-- _diagram_info -->
<g id="node1" class="node"><title>_diagram_info</title>
<text text-anchor="start" x="8" y="-851.4" font-family="Times Roman,serif" font-size="14.00">Models diagram</text>
<text text-anchor="start" x="8" y="-833.4" font-family="Times Roman,serif" font-size="14.00">Date: Nov 18 2010 &#45; 12:33</text>
<text text-anchor="start" x="8" y="-815.4" font-family="Times Roman,serif" font-size="14.00">Migration version: 20101003203143</text>
<text text-anchor="start" x="8" y="-797.4" font-family="Times Roman,serif" font-size="14.00">Generated by RailRoady 0.0.0</text>
</g>
<!-- Recipient -->
<g id="node2" class="node"><title>Recipient</title>
<polyline fill="none" stroke="black" points="298.5,-1 445.5,-1 "/>
<path fill="none" stroke="black" d="M445.5,-1C451.5,-1 457.5,-7 457.5,-13"/>
<polyline fill="none" stroke="black" points="457.5,-13 457.5,-131 "/>
<path fill="none" stroke="black" d="M457.5,-131C457.5,-137 451.5,-143 445.5,-143"/>
<polyline fill="none" stroke="black" points="445.5,-143 298.5,-143 "/>
<path fill="none" stroke="black" d="M298.5,-143C292.5,-143 286.5,-137 286.5,-131"/>
<polyline fill="none" stroke="black" points="286.5,-131 286.5,-13 "/>
<path fill="none" stroke="black" d="M286.5,-13C286.5,-7 292.5,-1 298.5,-1"/>
<text text-anchor="middle" x="372" y="-126.4" font-family="Times Roman,serif" font-size="14.00">Recipient</text>
<polyline fill="none" stroke="black" points="286.5,-117 457.5,-117 "/>
<text text-anchor="start" x="294.5" y="-100.4" font-family="Times Roman,serif" font-size="14.00">mobile_number :string</text>
<text text-anchor="start" x="294.5" y="-82.4" font-family="Times Roman,serif" font-size="14.00">response :string</text>
<text text-anchor="start" x="294.5" y="-64.4" font-family="Times Roman,serif" font-size="14.00">sent_at :datetime</text>
<text text-anchor="start" x="294.5" y="-46.4" font-family="Times Roman,serif" font-size="14.00">received_at :datetime</text>
<text text-anchor="start" x="294.5" y="-28.4" font-family="Times Roman,serif" font-size="14.00">created_at :datetime</text>
<text text-anchor="start" x="294.5" y="-10.4" font-family="Times Roman,serif" font-size="14.00">updated_at :datetime</text>
</g>
<!-- UserObserver -->
<g id="node3" class="node"><title>UserObserver</title>
<polygon fill="none" stroke="black" points="601.5,-523 601.5,-575 712.5,-575 712.5,-523 601.5,-523"/>
<text text-anchor="middle" x="657" y="-558.4" font-family="Times Roman,serif" font-size="14.00">UserObserver</text>
<polyline fill="none" stroke="black" points="601.5,-549 712.5,-549 "/>
<text text-anchor="middle" x="657" y="-532.4" font-family="Times Roman,serif" font-size="14.00"> </text>
</g>
<!-- User -->
<g id="node4" class="node"><title>User</title>
<polyline fill="none" stroke="black" points="301.5,-667 480.5,-667 "/>
<path fill="none" stroke="black" d="M480.5,-667C486.5,-667 492.5,-673 492.5,-679"/>
<polyline fill="none" stroke="black" points="492.5,-679 492.5,-977 "/>
<path fill="none" stroke="black" d="M492.5,-977C492.5,-983 486.5,-989 480.5,-989"/>
<polyline fill="none" stroke="black" points="480.5,-989 301.5,-989 "/>
<path fill="none" stroke="black" d="M301.5,-989C295.5,-989 289.5,-983 289.5,-977"/>
<polyline fill="none" stroke="black" points="289.5,-977 289.5,-679 "/>
<path fill="none" stroke="black" d="M289.5,-679C289.5,-673 295.5,-667 301.5,-667"/>
<text text-anchor="middle" x="391" y="-972.4" font-family="Times Roman,serif" font-size="14.00">User</text>
<polyline fill="none" stroke="black" points="289.5,-963 492.5,-963 "/>
<text text-anchor="start" x="297.5" y="-946.4" font-family="Times Roman,serif" font-size="14.00">name :string</text>
<text text-anchor="start" x="297.5" y="-928.4" font-family="Times Roman,serif" font-size="14.00">login :string</text>
<text text-anchor="start" x="297.5" y="-910.4" font-family="Times Roman,serif" font-size="14.00">email :string</text>
<text text-anchor="start" x="297.5" y="-892.4" font-family="Times Roman,serif" font-size="14.00">sender :string</text>
<text text-anchor="start" x="297.5" y="-874.4" font-family="Times Roman,serif" font-size="14.00">crypted_password :string</text>
<text text-anchor="start" x="297.5" y="-856.4" font-family="Times Roman,serif" font-size="14.00">password_salt :string</text>
<text text-anchor="start" x="297.5" y="-838.4" font-family="Times Roman,serif" font-size="14.00">persistence_token :string</text>
<text text-anchor="start" x="297.5" y="-820.4" font-family="Times Roman,serif" font-size="14.00">single_access_token :string</text>
<text text-anchor="start" x="297.5" y="-802.4" font-family="Times Roman,serif" font-size="14.00">perishable_token :string</text>
<text text-anchor="start" x="297.5" y="-784.4" font-family="Times Roman,serif" font-size="14.00">last_request_at :datetime</text>
<text text-anchor="start" x="297.5" y="-766.4" font-family="Times Roman,serif" font-size="14.00">current_login_at :datetime</text>
<text text-anchor="start" x="297.5" y="-748.4" font-family="Times Roman,serif" font-size="14.00">last_login_at :datetime</text>
<text text-anchor="start" x="297.5" y="-730.4" font-family="Times Roman,serif" font-size="14.00">current_login_ip :string</text>
<text text-anchor="start" x="297.5" y="-712.4" font-family="Times Roman,serif" font-size="14.00">last_login_ip :string</text>
<text text-anchor="start" x="297.5" y="-694.4" font-family="Times Roman,serif" font-size="14.00">created_at :datetime</text>
<text text-anchor="start" x="297.5" y="-676.4" font-family="Times Roman,serif" font-size="14.00">updated_at :datetime</text>
</g>
<!-- User&#45;&gt;Recipient -->
<g id="edge6" class="edge"><title>User&#45;&gt;Recipient</title>
<path fill="none" stroke="black" d="M315.388,-657.224C267.379,-523.981 224.052,-335.967 281,-180 284.569,-170.226 289.455,-160.725 295.124,-151.674"/>
<polygon fill="black" stroke="black" points="315.425,-657.327 314.624,-668.264 317.138,-662.024 318.851,-666.722 318.851,-666.722 318.851,-666.722 317.138,-662.024 323.079,-665.18 315.425,-657.327 315.425,-657.327"/>
<polygon fill="black" stroke="black" points="295.256,-151.476 304.532,-145.628 298.018,-147.308 300.781,-143.141 300.781,-143.141 300.781,-143.141 298.018,-147.308 297.031,-140.654 295.256,-151.476 295.256,-151.476"/>
</g>
<!-- Message -->
<g id="node5" class="node"><title>Message</title>
<polyline fill="none" stroke="black" points="301.5,-181 442.5,-181 "/>
<path fill="none" stroke="black" d="M442.5,-181C448.5,-181 454.5,-187 454.5,-193"/>
<polyline fill="none" stroke="black" points="454.5,-193 454.5,-311 "/>
<path fill="none" stroke="black" d="M454.5,-311C454.5,-317 448.5,-323 442.5,-323"/>
<polyline fill="none" stroke="black" points="442.5,-323 301.5,-323 "/>
<path fill="none" stroke="black" d="M301.5,-323C295.5,-323 289.5,-317 289.5,-311"/>
<polyline fill="none" stroke="black" points="289.5,-311 289.5,-193 "/>
<path fill="none" stroke="black" d="M289.5,-193C289.5,-187 295.5,-181 301.5,-181"/>
<text text-anchor="middle" x="372" y="-306.4" font-family="Times Roman,serif" font-size="14.00">Message</text>
<polyline fill="none" stroke="black" points="289.5,-297 454.5,-297 "/>
<text text-anchor="start" x="297.5" y="-280.4" font-family="Times Roman,serif" font-size="14.00">text :string</text>
<text text-anchor="start" x="297.5" y="-262.4" font-family="Times Roman,serif" font-size="14.00">sender :string</text>
<text text-anchor="start" x="297.5" y="-244.4" font-family="Times Roman,serif" font-size="14.00">ascii :boolean</text>
<text text-anchor="start" x="297.5" y="-226.4" font-family="Times Roman,serif" font-size="14.00">unit :integer</text>
<text text-anchor="start" x="297.5" y="-208.4" font-family="Times Roman,serif" font-size="14.00">created_at :datetime</text>
<text text-anchor="start" x="297.5" y="-190.4" font-family="Times Roman,serif" font-size="14.00">updated_at :datetime</text>
</g>
<!-- User&#45;&gt;Message -->
<g id="edge4" class="edge"><title>User&#45;&gt;Message</title>
<path fill="none" stroke="black" d="M358.144,-658.646C356.912,-648.978 355.846,-639.379 355,-630 345.797,-527.938 354.122,-409.902 362.031,-333.258"/>
<ellipse fill="none" stroke="black" cx="358.694" cy="-662.815" rx="4.00001" ry="4.00001"/>
<polygon fill="black" stroke="black" points="362.044,-333.135 367.567,-323.662 362.568,-328.162 363.092,-323.19 363.092,-323.19 363.092,-323.19 362.568,-328.162 358.617,-322.718 362.044,-333.135 362.044,-333.135"/>
</g>
<!-- Package -->
<g id="node8" class="node"><title>Package</title>
<polyline fill="none" stroke="black" points="375.5,-469 516.5,-469 "/>
<path fill="none" stroke="black" d="M516.5,-469C522.5,-469 528.5,-475 528.5,-481"/>
<polyline fill="none" stroke="black" points="528.5,-481 528.5,-617 "/>
<path fill="none" stroke="black" d="M528.5,-617C528.5,-623 522.5,-629 516.5,-629"/>
<polyline fill="none" stroke="black" points="516.5,-629 375.5,-629 "/>
<path fill="none" stroke="black" d="M375.5,-629C369.5,-629 363.5,-623 363.5,-617"/>
<polyline fill="none" stroke="black" points="363.5,-617 363.5,-481 "/>
<path fill="none" stroke="black" d="M363.5,-481C363.5,-475 369.5,-469 375.5,-469"/>
<text text-anchor="middle" x="446" y="-612.4" font-family="Times Roman,serif" font-size="14.00">Package</text>
<polyline fill="none" stroke="black" points="363.5,-603 528.5,-603 "/>
<text text-anchor="start" x="371.5" y="-586.4" font-family="Times Roman,serif" font-size="14.00">name :string</text>
<text text-anchor="start" x="371.5" y="-568.4" font-family="Times Roman,serif" font-size="14.00">description :text</text>
<text text-anchor="start" x="371.5" y="-550.4" font-family="Times Roman,serif" font-size="14.00">day_limit :integer</text>
<text text-anchor="start" x="371.5" y="-532.4" font-family="Times Roman,serif" font-size="14.00">amount :integer</text>
<text text-anchor="start" x="371.5" y="-514.4" font-family="Times Roman,serif" font-size="14.00">validity :integer</text>
<text text-anchor="start" x="371.5" y="-496.4" font-family="Times Roman,serif" font-size="14.00">created_at :datetime</text>
<text text-anchor="start" x="371.5" y="-478.4" font-family="Times Roman,serif" font-size="14.00">updated_at :datetime</text>
</g>
<!-- User&#45;&gt;Package -->
<g id="edge10" class="edge"><title>User&#45;&gt;Package</title>
<path fill="none" stroke="black" d="M424.733,-656.884C425.911,-650.908 427.073,-645.013 428.209,-639.247"/>
<polygon fill="black" stroke="black" points="424.689,-657.106 418.34,-666.046 423.722,-662.011 422.755,-666.917 422.755,-666.917 422.755,-666.917 423.722,-662.011 427.17,-667.787 424.689,-657.106 424.689,-657.106"/>
<polygon fill="black" stroke="black" points="428.292,-638.829 434.641,-629.888 429.259,-633.923 430.226,-629.017 430.226,-629.017 430.226,-629.017 429.259,-633.923 425.811,-628.147 428.292,-638.829 428.292,-638.829"/>
</g>
<!-- Subscription -->
<g id="node9" class="node"><title>Subscription</title>
<polyline fill="none" stroke="black" points="393.5,-361 534.5,-361 "/>
<path fill="none" stroke="black" d="M534.5,-361C540.5,-361 546.5,-367 546.5,-373"/>
<polyline fill="none" stroke="black" points="546.5,-373 546.5,-419 "/>
<path fill="none" stroke="black" d="M546.5,-419C546.5,-425 540.5,-431 534.5,-431"/>
<polyline fill="none" stroke="black" points="534.5,-431 393.5,-431 "/>
<path fill="none" stroke="black" d="M393.5,-431C387.5,-431 381.5,-425 381.5,-419"/>
<polyline fill="none" stroke="black" points="381.5,-419 381.5,-373 "/>
<path fill="none" stroke="black" d="M381.5,-373C381.5,-367 387.5,-361 393.5,-361"/>
<text text-anchor="middle" x="464" y="-414.4" font-family="Times Roman,serif" font-size="14.00">Subscription</text>
<polyline fill="none" stroke="black" points="381.5,-405 546.5,-405 "/>
<text text-anchor="start" x="389.5" y="-388.4" font-family="Times Roman,serif" font-size="14.00">created_at :datetime</text>
<text text-anchor="start" x="389.5" y="-370.4" font-family="Times Roman,serif" font-size="14.00">updated_at :datetime</text>
</g>
<!-- User&#45;&gt;Subscription -->
<g id="edge8" class="edge"><title>User&#45;&gt;Subscription</title>
<path fill="none" stroke="black" d="M497.867,-725.942C521.162,-697.344 542.55,-664.55 555,-630 579.409,-562.264 586.364,-532.81 555,-468 549.53,-456.696 541.328,-446.628 532.049,-437.865"/>
<ellipse fill="none" stroke="black" cx="495.104" cy="-729.277" rx="4.00002" ry="4.00002"/>
<polygon fill="black" stroke="black" points="531.904,-437.737 527.387,-427.744 528.156,-434.427 524.408,-431.117 524.408,-431.117 524.408,-431.117 528.156,-434.427 521.429,-434.49 531.904,-437.737 531.904,-437.737"/>
</g>
<!-- Message&#45;&gt;Recipient -->
<g id="edge12" class="edge"><title>Message&#45;&gt;Recipient</title>
<path fill="none" stroke="black" d="M372,-172.673C372,-166.237 372,-159.728 372,-153.279"/>
<ellipse fill="none" stroke="black" cx="372" cy="-176.859" rx="4" ry="4"/>
<polygon fill="black" stroke="black" points="372,-153.213 376.5,-143.213 372,-148.213 372,-143.213 372,-143.213 372,-143.213 372,-148.213 367.5,-143.214 372,-153.213 372,-153.213"/>
</g>
<!-- MessageObserver -->
<g id="node6" class="node"><title>MessageObserver</title>
<polygon fill="none" stroke="black" points="730,-523 730,-575 868,-575 868,-523 730,-523"/>
<text text-anchor="middle" x="799" y="-558.4" font-family="Times Roman,serif" font-size="14.00">MessageObserver</text>
<polyline fill="none" stroke="black" points="730,-549 868,-549 "/>
<text text-anchor="middle" x="799" y="-532.4" font-family="Times Roman,serif" font-size="14.00"> </text>
</g>
<!-- UserSession -->
<g id="node7" class="node"><title>UserSession</title>
<polygon fill="none" stroke="black" points="1046,-523 1046,-575 1146,-575 1146,-523 1046,-523"/>
<text text-anchor="middle" x="1096" y="-558.4" font-family="Times Roman,serif" font-size="14.00">UserSession</text>
<polyline fill="none" stroke="black" points="1046,-549 1146,-549 "/>
<text text-anchor="middle" x="1096" y="-532.4" font-family="Times Roman,serif" font-size="14.00"> </text>
</g>
<!-- Package&#45;&gt;Package -->
<g id="edge20" class="edge"><title>Package&#45;&gt;Package</title>
<path fill="none" stroke="black" d="M537.369,-568.576C542.767,-563.894 546,-557.368 546,-549 546,-540.632 542.767,-534.106 537.369,-529.424"/>
<polygon fill="black" stroke="black" points="537.305,-568.615 526.424,-569.977 533.036,-571.217 528.766,-573.819 528.766,-573.819 528.766,-573.819 533.036,-571.217 531.108,-577.662 537.305,-568.615 537.305,-568.615"/>
<polygon fill="black" stroke="black" points="537.305,-529.385 531.108,-520.338 533.036,-526.783 528.766,-524.181 528.766,-524.181 528.766,-524.181 533.036,-526.783 526.424,-528.023 537.305,-529.385 537.305,-529.385"/>
</g>
<!-- Package&#45;&gt;Subscription -->
<g id="edge18" class="edge"><title>Package&#45;&gt;Subscription</title>
<path fill="none" stroke="black" d="M456.372,-460.84C457.163,-454.112 457.94,-447.508 458.677,-441.242"/>
<ellipse fill="none" stroke="black" cx="455.889" cy="-464.943" rx="4.00001" ry="4.00001"/>
<polygon fill="black" stroke="black" points="458.708,-440.985 464.345,-431.579 459.292,-436.019 459.876,-431.053 459.876,-431.053 459.876,-431.053 459.292,-436.019 455.407,-430.527 458.708,-440.985 458.708,-440.985"/>
</g>
<!-- Subscription&#45;&gt;Recipient -->
<g id="edge22" class="edge"><title>Subscription&#45;&gt;Recipient</title>
<path fill="none" stroke="black" d="M472.243,-352.626C478.834,-307.886 483.897,-236.824 463,-180 459.409,-170.234 454.507,-160.739 448.829,-151.692"/>
<ellipse fill="none" stroke="black" cx="471.612" cy="-356.711" rx="4.00001" ry="4.00001"/>
<polygon fill="black" stroke="black" points="448.696,-151.492 446.913,-140.672 445.93,-147.326 443.164,-143.161 443.164,-143.161 443.164,-143.161 445.93,-147.326 439.415,-145.65 448.696,-151.492 448.696,-151.492"/>
</g>
<!-- Subscription&#45;&gt;Message -->
<g id="edge24" class="edge"><title>Subscription&#45;&gt;Message</title>
<path fill="none" stroke="black" d="M436.026,-352.214C431.899,-345.755 427.543,-338.936 423.122,-332.017"/>
<polygon fill="black" stroke="black" points="436.11,-352.347 437.702,-363.196 438.802,-356.56 441.494,-360.774 441.494,-360.774 441.494,-360.774 438.802,-356.56 445.286,-358.351 436.11,-352.347 436.11,-352.347"/>
<polygon fill="black" stroke="black" points="422.885,-331.647 421.294,-320.797 420.193,-327.433 417.501,-323.22 417.501,-323.22 417.501,-323.22 420.193,-327.433 413.709,-325.642 422.885,-331.647 422.885,-331.647"/>
</g>
<!-- RecipientObserver -->
<g id="node10" class="node"><title>RecipientObserver</title>
<polygon fill="none" stroke="black" points="885.5,-523 885.5,-575 1028.5,-575 1028.5,-523 885.5,-523"/>
<text text-anchor="middle" x="957" y="-558.4" font-family="Times Roman,serif" font-size="14.00">RecipientObserver</text>
<polyline fill="none" stroke="black" points="885.5,-549 1028.5,-549 "/>
<text text-anchor="middle" x="957" y="-532.4" font-family="Times Roman,serif" font-size="14.00"> </text>
</g>
<!-- ActiveRecord::Observer -->
<g id="node11" class="node"><title>ActiveRecord::Observer</title>
<ellipse fill="none" stroke="black" cx="799" cy="-828" rx="125.865" ry="18.3848"/>
<text text-anchor="middle" x="799" y="-824.4" font-family="Times Roman,serif" font-size="14.00">ActiveRecord::Observer</text>
</g>
<!-- ActiveRecord::Observer&#45;&gt;UserObserver -->
<g id="edge2" class="edge"><title>ActiveRecord::Observer&#45;&gt;UserObserver</title>
<path fill="none" stroke="black" d="M789.462,-809.261C764.775,-760.756 698.732,-630.995 670.31,-575.151"/>
</g>
<!-- ActiveRecord::Observer&#45;&gt;MessageObserver -->
<g id="edge14" class="edge"><title>ActiveRecord::Observer&#45;&gt;MessageObserver</title>
<path fill="none" stroke="black" d="M799,-809.261C799,-760.756 799,-630.995 799,-575.151"/>
</g>
<!-- ActiveRecord::Observer&#45;&gt;RecipientObserver -->
<g id="edge26" class="edge"><title>ActiveRecord::Observer&#45;&gt;RecipientObserver</title>
<path fill="none" stroke="black" d="M809.612,-809.261C837.081,-760.756 910.566,-630.995 942.191,-575.151"/>
</g>
<!-- Authlogic::Session::Base -->
<g id="node19" class="node"><title>Authlogic::Session::Base</title>
<ellipse fill="none" stroke="black" cx="1096" cy="-828" rx="130.108" ry="18.3848"/>
<text text-anchor="middle" x="1096" y="-824.4" font-family="Times Roman,serif" font-size="14.00">Authlogic::Session::Base</text>
</g>
<!-- Authlogic::Session::Base&#45;&gt;UserSession -->
<g id="edge16" class="edge"><title>Authlogic::Session::Base&#45;&gt;UserSession</title>
<path fill="none" stroke="black" d="M1096,-809.261C1096,-760.756 1096,-630.995 1096,-575.151"/>
</g>
</g>
</svg>
